# xmcd CD database file
# Copyright (C) 1993-1998 Ti Kan
#
# Track frame offsets:
#	150
#	21653
#	32763
#	40655
#	52108
#	64985
#	78103
#	87133
#	96328
#	105605
#	122830
#	134398
#	164100
#	178323
#
# Disc length: 2505 seconds
#
# Revision: 1
# Processed by: cddbd v1.4b41PL1 Copyright (c) Steve Scherf et al.
# Submitted via: CDValet v3.31 - Copyright (c) 1997 Greg Leichner
#
DISCID=c709c70e
DTITLE=Francis Kuipers - Country Concert
DYEAR=1900
DGENRE=
TTITLE0=Old JOe Clarke
TTITLE1=MIles
TTITLE2=Polka
TTITLE3=Dark Hollow
TTITLE4=Cigarettes and Whisky and wild wild women
TTITLE5=Alberta
TTITLE6=Roll on Buddy
TTITLE7=Stern ols Bachelor
TTITLE8=Cocaine
TTITLE9=John Henry
TTITLE10=Walking Cane
TTITLE11=Darlin'Corey
TTITLE12=Old blue
TTITLE13=Poor Howard
EXTD=
EXTT0=
EXTT1=
EXTT2=
EXTT3=
EXTT4=
EXTT5=
EXTT6=
EXTT7=
EXTT8=
EXTT9=
EXTT10=
EXTT11=
EXTT12=
EXTT13=
PLAYORDER=
